<?xml version="1.0" encoding="UTF-8"?>
<svg xmlns="http://www.w3.org/2000/svg" viewBox="0 0 64.79 64.79">
  <g transform="translate(0, 9)">
    <path fill="#BE1D2C" d="M47.31.37l-13.52,7.65c-.87.49-1.93.49-2.79,0L17.48.37c-.91-.52-2.04-.49-2.92.08L1.31,8.93c-.81.52-1.31,1.42-1.31,2.39v14.49c0,.98.51,1.9,1.35,2.42l29.56,18.18c.91.56,2.06.56,2.97,0l29.56-18.18c.84-.52,1.35-1.43,1.35-2.42v-14.49c0-.97-.49-1.87-1.31-2.39L50.23.45c-.89-.57-2.01-.6-2.92-.08"/>
    <path fill="#F5F0E8" d="M27.66,22.26c0-1.31.39-2.38,1.18-3.2.79-.82,1.82-1.23,3.11-1.23.83,0,1.5.15,2.02.44s.77.68.77,1.16c0,.3-.1.56-.29.76-.2.2-.44.3-.74.3-.13,0-.39-.06-.78-.19-.39-.13-.72-.19-.97-.19-.52,0-.93.19-1.25.58-.32.39-.48.89-.48,1.52s.16,1.17.49,1.54c.32.37.77.56,1.33.56.27,0,.6-.06.98-.19.38-.13.62-.19.74-.19.27,0,.5.1.69.31s.28.46.28.77c0,.46-.28.85-.84,1.17-.56.32-1.26.49-2.09.49-1.23,0-2.22-.41-2.99-1.22-.76-.82-1.15-1.88-1.15-3.19Z"/>
    <path fill="#F5F0E8" d="M36.85,23.07v-3.32c0-.61.1-1.07.31-1.36.21-.3.52-.44.94-.44s.73.15.93.44.31.75.31,1.36v2.81c0,.66.1,1.13.3,1.41.2.28.53.41.98.41s.78-.14.98-.41c.2-.28.3-.75.3-1.41v-2.81c0-.61.1-1.07.31-1.36s.52-.44.95-.44.73.15.93.44c.2.29.3.75.3,1.37v3.32c0,1.18-.32,2.09-.97,2.72-.64.63-1.58.94-2.8.94s-2.15-.31-2.8-.94c-.65-.63-.97-1.53-.97-2.72Z"/>
    <path fill="#F5F0E8" d="M15.69,25.73c0,.61-.11,1.07-.32,1.37-.21.3-.54.45-.98.45s-.76-.15-.98-.45c-.21-.3-.32-.75-.32-1.37v-7.17h-.23c-.57,0-1-.1-1.29-.3s-.44-.5-.44-.89.15-.69.45-.89c.3-.2.76-.29,1.37-.29h1.28c.52,0,.89.14,1.12.42s.34.74.34,1.4v7.73Z"/>
    <path fill="#F5F0E8" d="M24.33,25.06c.61,0,1.07.1,1.37.29s.45.49.45.89-.15.7-.45.9c-.3.2-.75.29-1.37.29h-4.54c-.52,0-.91-.1-1.16-.29-.25-.2-.38-.49-.38-.9,0-.36.52-1.1,1.55-2.23.21-.23.37-.4.49-.53,1.14-1.25,1.9-2.16,2.28-2.74.38-.57.57-1.04.57-1.41,0-.31-.09-.57-.27-.77-.18-.2-.41-.3-.69-.3-.26,0-.49.1-.7.3s-.38.49-.52.86c-.19.52-.37.87-.54,1.04-.18.17-.41.26-.7.26-.38,0-.68-.12-.92-.36-.23-.24-.35-.56-.35-.95,0-.32.07-.67.22-1.05.14-.38.33-.72.57-1.02.38-.47.83-.83,1.34-1.08.52-.25,1.07-.37,1.68-.37,1.07,0,1.93.31,2.6.94.67.63,1,1.43,1,2.4,0,.73-.25,1.5-.76,2.3-.51.8-1.55,1.99-3.13,3.55h2.36Z"/>
    <path fill="#F5F0E8" d="M50.58,16.36c-.2-.3-.51-.45-.93-.45s-.74.15-.94.45c-.21.3-.31.75-.31,1.37v7.7c0,.61.1,1.07.31,1.37.21.3.52.45.94.45s.73-.15.93-.44c.2-.3.3-.75.3-1.37v-7.7c0-.61-.1-1.07-.31-1.37Z"/>
    <rect fill="#F5F0E8" x="45.63" y="19.21" width="8.02" height="2.37" rx="1.18" ry="1.18"/>
  </g>
</svg>
