<svg width="70" height="25" viewBox="0 0 70 25" fill="none" xmlns="http://www.w3.org/2000/svg">
<g clip-path="url(#clip0_1_19797)">
<path d="M56.7144 25H12.3477C5.54202 25 0 19.458 0 12.6523V12.3325C0 5.54202 5.54202 0 12.3477 0H56.7144C63.5201 0 69.0621 5.54202 69.0621 12.3477V12.6675C69.0621 19.4732 63.5201 25.0152 56.7144 25.0152V25Z" fill="none"/>
<path d="M29.2632 13.2154C29.2632 11.5102 29.7656 10.1399 30.7857 9.07416C31.8058 8.00838 33.1456 7.49072 34.8052 7.49072C35.871 7.49072 36.7388 7.68865 37.4087 8.06929C38.0787 8.44992 38.4136 8.95236 38.4136 9.56137C38.4136 9.95723 38.2918 10.277 38.033 10.5358C37.7741 10.7946 37.4544 10.9316 37.0738 10.9316C36.9063 10.9316 36.5713 10.8555 36.0689 10.688C35.5665 10.5206 35.1402 10.4444 34.8052 10.4444C34.1353 10.4444 33.6024 10.688 33.1913 11.1905C32.7802 11.6929 32.5823 12.3476 32.5823 13.1545C32.5823 13.9615 32.7955 14.6619 33.2065 15.1491C33.6329 15.6363 34.1962 15.8799 34.927 15.8799C35.2772 15.8799 35.7035 15.8038 36.1907 15.6363C36.6779 15.4688 36.9977 15.3927 37.1499 15.3927C37.5001 15.3927 37.8046 15.5297 38.033 15.8038C38.2614 16.0778 38.3984 16.3975 38.3984 16.7934C38.3984 17.3872 38.033 17.8896 37.3174 18.3159C36.5866 18.7422 35.6883 18.9402 34.6225 18.9402C33.0391 18.9402 31.7449 18.4073 30.7553 17.3567C29.7656 16.3062 29.2784 14.9207 29.2784 13.2307L29.2632 13.2154Z" fill="white"/>
<path d="M41.1389 14.2662V9.97263C41.1389 9.18091 41.2759 8.58713 41.5348 8.20649C41.7936 7.82586 42.2047 7.62793 42.7528 7.62793C43.3009 7.62793 43.6968 7.82586 43.9556 8.20649C44.2144 8.58713 44.3515 9.18091 44.3515 9.97263V13.6115C44.3515 14.4641 44.4885 15.0731 44.7473 15.4385C45.0061 15.7887 45.4325 15.9714 46.011 15.9714C46.5896 15.9714 47.0159 15.7887 47.2747 15.4385C47.5336 15.0883 47.6706 14.4793 47.6706 13.6115V9.97263C47.6706 9.18091 47.8076 8.58713 48.0664 8.20649C48.3253 7.82586 48.7364 7.62793 49.2845 7.62793C49.8326 7.62793 50.2284 7.81063 50.4873 8.19127C50.7461 8.5719 50.8831 9.16569 50.8831 9.95741V14.2509C50.8831 15.7887 50.472 16.9458 49.6347 17.768C48.7973 18.5749 47.5945 18.986 46.0262 18.986C44.458 18.986 43.24 18.5749 42.4026 17.768C41.5652 16.9611 41.1541 15.7887 41.1541 14.2509L41.1389 14.2662Z" fill="white"/>
<path d="M13.7941 17.6919C13.7941 18.4836 13.657 19.0774 13.383 19.458C13.1089 19.8387 12.6826 20.0366 12.1193 20.0366C11.5559 20.0366 11.1296 19.8387 10.8556 19.458C10.5815 19.0774 10.4445 18.4836 10.4445 17.6919V8.41967H10.14C9.40916 8.41967 8.84583 8.28264 8.46519 8.02381C8.08456 7.76498 7.90186 7.38434 7.90186 6.88191C7.90186 6.37947 8.09979 5.98361 8.48042 5.74001C8.87628 5.48118 9.45484 5.35938 10.2466 5.35938H11.9061C12.576 5.35938 13.0632 5.54208 13.3525 5.89226C13.6418 6.24244 13.7941 6.85146 13.7941 7.70408V17.6919Z" fill="white"/>
<path d="M24.9544 16.839C25.7461 16.839 26.3399 16.9608 26.7206 17.2196C27.1012 17.4785 27.2991 17.8591 27.2991 18.3615C27.2991 18.864 27.1012 19.2598 26.7206 19.5187C26.3399 19.7775 25.7461 19.8993 24.9544 19.8993H19.0774C18.4075 19.8993 17.9051 19.7775 17.5854 19.5187C17.2656 19.2598 17.0981 18.8792 17.0981 18.3615C17.0981 17.8896 17.7681 16.9304 19.1079 15.4687C19.3819 15.1794 19.5951 14.9511 19.7321 14.7836C21.209 13.1697 22.1834 11.9821 22.6706 11.2361C23.1578 10.49 23.4167 9.88103 23.4167 9.40904C23.4167 8.99796 23.2949 8.663 23.0665 8.40417C22.8229 8.14534 22.5336 8.00831 22.1682 8.00831C21.8332 8.00831 21.5287 8.13012 21.2699 8.38895C21.0111 8.64778 20.7827 9.01318 20.6 9.50039C20.3564 10.1703 20.128 10.6271 19.8996 10.8402C19.6712 11.0686 19.3667 11.1752 19.0013 11.1752C18.5141 11.1752 18.1182 11.0229 17.8137 10.7032C17.5092 10.3835 17.357 9.98761 17.357 9.46994C17.357 9.05886 17.4483 8.6021 17.631 8.09966C17.8137 7.59723 18.0573 7.15569 18.3771 6.77506C18.8643 6.16605 19.4428 5.70929 20.1128 5.38955C20.7827 5.06982 21.4983 4.90234 22.2748 4.90234C23.6603 4.90234 24.7717 5.31343 25.6396 6.12037C26.5074 6.92731 26.9337 7.96264 26.9337 9.22634C26.9337 10.1703 26.5988 11.16 25.9441 12.1953C25.2894 13.2306 23.9343 14.7684 21.8941 16.7933H24.9544V16.839Z" fill="white"/>
<path d="M58.5718 5.58784C58.313 5.20721 57.9019 5.00928 57.369 5.00928C56.8361 5.00928 56.4098 5.20721 56.151 5.58784C55.8922 5.96847 55.7551 6.56226 55.7551 7.35398V17.2961C55.7551 18.0878 55.8922 18.6816 56.151 19.0623C56.4098 19.4429 56.8209 19.6408 57.369 19.6408C57.9171 19.6408 58.313 19.4429 58.5718 19.0623C58.8306 18.6816 58.9677 18.0878 58.9677 17.2961V7.35398C58.9677 6.56226 58.8306 5.96847 58.5718 5.58784Z" fill="white"/>
<path d="M60.4902 8.66309H54.2174C53.3765 8.66309 52.6948 9.34475 52.6948 10.1856V10.2008C52.6948 11.0417 53.3765 11.7234 54.2174 11.7234H60.4902C61.3311 11.7234 62.0127 11.0417 62.0127 10.2008V10.1856C62.0127 9.34475 61.3311 8.66309 60.4902 8.66309Z" fill="white"/>
</g>
<defs>
<clipPath id="clip0_1_19797">
<rect width="69.0621" height="25" fill="white"/>
</clipPath>
</defs>
</svg>
